<svg width="166" height="182" viewBox="0 0 166 182" fill="none" xmlns="http://www.w3.org/2000/svg">
<path d="M128.741 0.645264H37.2594C16.6816 0.645264 0 18.8065 0 41.2095V140.805C0 163.208 16.6816 181.369 37.2594 181.369H128.741C149.318 181.369 166 163.208 166 140.805V41.2095C166 18.8065 149.318 0.645264 128.741 0.645264Z" fill="#FD3832"/>
<path d="M75.0938 41.3975H69.9188L66.4114 55.9831L62.7889 41.3975H57.499L60.7765 51.7263C62.024 55.4886 63.042 59.3363 63.8239 63.2446V78.2684H68.9988V63.2446L75.0938 41.3975ZM88.7785 69.5045V59.9268C88.8948 57.7296 88.3934 55.546 87.3411 53.6669C86.7007 52.7814 85.8842 52.0657 84.953 51.5735C84.0217 51.0814 83.0001 50.8257 81.9649 50.8257C80.9297 50.8257 79.9081 51.0814 78.9768 51.5735C78.0456 52.0657 77.2291 52.7814 76.5887 53.6669C75.533 55.5445 75.0313 57.7293 75.1513 59.9268V69.5045C75.0276 71.7024 75.5296 73.8884 76.5887 75.7644C77.2291 76.6499 78.0456 77.3656 78.9768 77.8578C79.9081 78.3499 80.9297 78.6056 81.9649 78.6056C83.0001 78.6056 84.0217 78.3499 84.953 77.8578C85.8842 77.3656 86.7007 76.6499 87.3411 75.7644C88.3934 73.8853 88.8948 71.7017 88.7785 69.5045V69.5045ZM84.1786 70.4435C84.1786 73.01 83.4886 74.262 81.9937 74.262C80.4987 74.262 79.8087 73.01 79.8087 70.4435V58.9252C79.8087 56.3587 80.4987 55.1067 81.9937 55.1067C83.4886 55.1067 84.1786 56.3587 84.1786 58.9252V70.4435ZM105.856 78.4562V50.7247H101.256V71.8833C100.221 73.4482 99.2434 74.262 98.3234 74.262C97.4034 74.262 97.3459 73.8864 97.2309 73.0726C97.1816 72.4269 97.1816 71.7778 97.2309 71.1321V50.7247H92.631V72.6344C92.576 74.0257 92.7116 75.4182 93.0335 76.766C93.2397 77.4307 93.649 77.9983 94.1931 78.3742C94.7372 78.7501 95.3832 78.9116 96.0234 78.8318C97.0327 78.7325 98.0126 78.4091 98.9027 77.8815C99.7927 77.354 100.574 76.6334 101.198 75.7644V78.7692L105.856 78.4562Z" fill="white"/>
<path d="M91.3661 106.5C90.9293 106.522 90.5007 106.638 90.1057 106.842C89.7107 107.046 89.3573 107.335 89.0662 107.69V124.404C89.3551 124.762 89.7081 125.052 90.1036 125.257C90.499 125.461 90.9286 125.576 91.3661 125.593C92.6886 125.593 93.3211 124.404 93.3211 121.9V110.194C93.3211 107.752 92.6886 106.5 91.3661 106.5Z" fill="white"/>
<path d="M108.271 106.5C106.718 106.5 105.971 107.752 105.971 110.319V112.823H110.513V110.319C110.571 107.752 109.766 106.5 108.271 106.5Z" fill="white"/>
<path d="M119.426 92.5408C119.008 90.4362 117.996 88.5264 116.532 87.0785C115.068 85.6306 113.225 84.717 111.261 84.4655C101.877 83.5177 92.4513 83.1415 83.0287 83.3387C73.606 83.1415 64.1807 83.5177 54.7966 84.4655C52.822 84.7047 50.9662 85.6128 49.491 87.0616C48.0157 88.5105 46.9955 90.427 46.5742 92.5408C45.4764 98.9363 45.0329 105.445 45.2517 111.947C45.0324 118.448 45.4759 124.957 46.5742 131.352C47.0001 133.453 48.0142 135.358 49.4766 136.804C50.9391 138.25 52.7778 139.167 54.7391 139.428C64.1424 140.375 73.5869 140.751 83.0287 140.554C92.4513 140.749 101.877 140.372 111.261 139.428C113.222 139.167 115.061 138.25 116.523 136.804C117.986 135.358 119 133.453 119.426 131.352C120.523 124.957 120.967 118.448 120.748 111.947C120.967 105.445 120.523 98.9363 119.426 92.5408ZM66.8139 98.1121H61.064V129.412H56.2341V98.1121H50.8867V92.9164H66.8139V98.1121ZM80.6137 129.412H76.0713V126.407C75.4736 127.347 74.6968 128.135 73.7938 128.719C72.8909 129.302 71.883 129.667 70.8389 129.787C70.2079 129.852 69.5752 129.684 69.0431 129.309C68.511 128.934 68.1105 128.375 67.9064 127.722C67.5877 126.394 67.452 125.023 67.5039 123.653V102.369H72.0463V122.526C72.0057 123.172 72.0057 123.82 72.0463 124.466C72.0463 125.218 72.5063 125.656 73.1388 125.656C73.7713 125.656 75.0363 124.905 76.0138 123.34V102.369H80.4987L80.6137 129.412ZM97.8634 121.211C97.9239 123.061 97.7693 124.912 97.4035 126.72C97.2178 127.608 96.7556 128.399 96.0953 128.958C95.435 129.517 94.6173 129.81 93.781 129.787C92.8367 129.711 91.9209 129.401 91.1037 128.88C90.2865 128.359 89.5895 127.642 89.0661 126.783V129.412H84.5236V92.979H89.0661V104.998C89.5926 104.147 90.2915 103.44 91.109 102.929C91.9265 102.419 92.8406 102.12 93.781 102.056C94.6173 102.033 95.435 102.326 96.0953 102.885C96.7556 103.445 97.2178 104.235 97.4035 105.123C97.7762 106.93 97.9309 108.782 97.8634 110.632V121.211ZM115.113 116.641H106.028V121.524C106.028 124.091 106.776 125.343 108.328 125.343C108.837 125.36 109.332 125.16 109.708 124.786C110.084 124.412 110.311 123.893 110.341 123.34C110.398 122.214 110.398 121.085 110.341 119.959H114.998V123.903C114.871 124.978 114.517 126.007 113.963 126.908C113.328 127.907 112.462 128.705 111.452 129.222C110.442 129.739 109.325 129.955 108.213 129.85C107.115 129.944 106.012 129.736 105.007 129.244C104.002 128.751 103.127 127.991 102.463 127.033C101.401 125.159 100.898 122.971 101.026 120.773V111.258C100.898 109.06 101.401 106.872 102.463 104.998C103.123 104.036 103.997 103.272 105.003 102.779C106.009 102.286 107.114 102.081 108.213 102.181C109.258 102.128 110.298 102.357 111.242 102.848C112.185 103.34 113.001 104.079 113.618 104.998C114.67 106.877 115.172 109.061 115.056 111.258L115.113 116.641Z" fill="white"/>
</svg>
