<svg width="166" height="182" viewBox="0 0 166 182" fill="none" xmlns="http://www.w3.org/2000/svg">
<path d="M145.25 0.645264H20.75C9.30637 0.645264 0 10.7771 0 23.2357V158.779C0 171.237 9.30637 181.369 20.75 181.369H145.25C156.694 181.369 166 171.237 166 158.779V23.2357C166 10.7771 156.694 0.645264 145.25 0.645264Z" fill="#1976D2"/>
<path fill-rule="evenodd" clip-rule="evenodd" d="M140.062 91.0072H114.125V68.4167C114.125 62.1818 118.773 62.7691 124.5 62.7691H134.875V34.531H114.125C105.87 34.531 97.9534 38.1011 92.1163 44.4559C86.2792 50.8107 83 59.4297 83 68.4167V91.0072H62.25V119.245H83V181.369H114.125V119.245H129.688L140.062 91.0072Z" fill="#FAFAFA"/>
</svg>
