<svg width="166" height="182" viewBox="0 0 166 182" fill="none" xmlns="http://www.w3.org/2000/svg">
<path d="M114.125 0.734131H51.875C38.1169 0.734131 24.9223 6.68428 15.1938 17.2756C5.46539 27.867 0 42.2319 0 57.2103L0 124.982C0 139.96 5.46539 154.325 15.1938 164.916C24.9223 175.508 38.1169 181.458 51.875 181.458H114.125C127.883 181.458 141.078 175.508 150.806 164.916C160.535 154.325 166 139.96 166 124.982V57.2103C166 42.2319 160.535 27.867 150.806 17.2756C141.078 6.68428 127.883 0.734131 114.125 0.734131V0.734131ZM150.438 124.982C150.438 146.782 134.149 164.515 114.125 164.515H51.875C31.8513 164.515 15.5625 146.782 15.5625 124.982V57.2103C15.5625 35.4105 31.8513 17.677 51.875 17.677H114.125C134.149 17.677 150.438 35.4105 150.438 57.2103V124.982Z" fill="url(#paint0_linear_62_402)"/>
<path d="M83 45.915C71.9935 45.915 61.4378 50.6752 53.6551 59.1482C45.8723 67.6213 41.5 79.1133 41.5 91.096C41.5 103.079 45.8723 114.571 53.6551 123.044C61.4378 131.517 71.9935 136.277 83 136.277C94.0065 136.277 104.562 131.517 112.345 123.044C120.128 114.571 124.5 103.079 124.5 91.096C124.5 79.1133 120.128 67.6213 112.345 59.1482C104.562 50.6752 94.0065 45.915 83 45.915ZM83 119.334C76.1235 119.325 69.531 116.347 64.6685 111.053C59.8061 105.76 57.0707 98.5825 57.0625 91.096C57.0625 75.5199 68.7032 62.8579 83 62.8579C97.2968 62.8579 108.938 75.5199 108.938 91.096C108.938 106.661 97.2968 119.334 83 119.334Z" fill="url(#paint1_linear_62_402)"/>
<path d="M127.613 48.5468C130.667 48.5468 133.142 45.8514 133.142 42.5265C133.142 39.2015 130.667 36.5061 127.613 36.5061C124.558 36.5061 122.083 39.2015 122.083 42.5265C122.083 45.8514 124.558 48.5468 127.613 48.5468Z" fill="url(#paint2_linear_62_402)"/>
<defs>
<linearGradient id="paint0_linear_62_402" x1="15.1942" y1="164.916" x2="162.303" y2="29.7927" gradientUnits="userSpaceOnUse">
<stop stop-color="#FFC107"/>
<stop offset="0.5074" stop-color="#F44336"/>
<stop offset="0.9901" stop-color="#9C27B0"/>
</linearGradient>
<linearGradient id="paint1_linear_62_402" x1="53.6554" y1="123.043" x2="117.32" y2="64.5654" gradientUnits="userSpaceOnUse">
<stop stop-color="#FFC107"/>
<stop offset="0.5074" stop-color="#F44336"/>
<stop offset="0.9901" stop-color="#9C27B0"/>
</linearGradient>
<linearGradient id="paint2_linear_62_402" x1="123.7" y1="46.7859" x2="132.188" y2="38.9892" gradientUnits="userSpaceOnUse">
<stop stop-color="#FFC107"/>
<stop offset="0.5074" stop-color="#F44336"/>
<stop offset="0.9901" stop-color="#9C27B0"/>
</linearGradient>
</defs>
</svg>
