<svg width="166" height="182" viewBox="0 0 166 182" fill="none" xmlns="http://www.w3.org/2000/svg">
<path d="M156.778 0.290527H9.22222C4.12893 0.290527 0 4.78568 0 10.3307V170.974C0 176.519 4.12893 181.014 9.22222 181.014H156.778C161.871 181.014 166 176.519 166 170.974V10.3307C166 4.78568 161.871 0.290527 156.778 0.290527Z" fill="#117EB8"/>
<path fill-rule="evenodd" clip-rule="evenodd" d="M30.2927 70.1904H52.479V147.907H30.2927V70.1904V70.1904ZM41.3893 31.5582C48.4835 31.5582 54.2474 37.8333 54.2474 45.5567C54.2474 53.2877 48.4835 59.5654 41.3893 59.5654C39.6797 59.6006 37.9807 59.2644 36.3918 58.5765C34.8029 57.8886 33.3559 56.8627 32.1354 55.5589C30.9148 54.255 29.9453 52.6994 29.2835 50.9828C28.6216 49.2663 28.2808 47.4234 28.2808 45.5618C28.2808 43.7001 28.6216 41.8572 29.2835 40.1407C29.9453 38.4242 30.9148 36.8685 32.1354 35.5646C33.3559 34.2608 34.8029 33.2349 36.3918 32.547C37.9807 31.8591 39.6797 31.5229 41.3893 31.5582V31.5582ZM66.3954 70.1879H87.6756V80.8079H87.9708C90.9334 74.6985 98.1705 68.2577 108.963 68.2577C131.428 68.2577 135.578 84.3546 135.578 105.281V147.907H113.406V110.113C113.406 101.102 113.253 89.5078 101.878 89.5078C90.3339 89.5078 88.561 99.3246 88.561 109.463V147.907H66.3931V70.1904L66.3954 70.1879Z" fill="white"/>
</svg>
