<svg width="166" height="182" viewBox="0 0 166 182" fill="none" xmlns="http://www.w3.org/2000/svg">
<path d="M128.741 0.37915H37.2594C16.6816 0.37915 0 18.5404 0 40.9434V140.539C0 162.942 16.6816 181.103 37.2594 181.103H128.741C149.318 181.103 166 162.942 166 140.539V40.9434C166 18.5404 149.318 0.37915 128.741 0.37915Z" fill="#00C7FF"/>
<path fill-rule="evenodd" clip-rule="evenodd" d="M67.5039 113.746C63.5822 113.64 59.7878 112.21 56.6458 109.653C53.5038 107.096 51.1697 103.539 49.9667 99.4736C52.6368 100.117 55.4039 100.117 58.074 99.4736C55.5487 98.8276 53.173 97.6213 51.0953 95.9303C49.0177 94.2392 47.2828 92.0997 45.9992 89.6455C44.1214 86.3632 43.1624 82.5566 43.2393 78.6907C45.8167 80.2353 48.6935 81.0934 51.6341 81.1946C47.6877 78.2378 44.9147 73.7653 43.8717 68.6748C42.8173 63.615 43.5784 58.3079 45.9992 53.8388C50.7356 60.1967 56.6396 65.4074 63.333 69.1372C70.0264 72.8669 77.3616 75.0335 84.8686 75.4981C84.8686 74.6843 84.8686 73.9957 84.5811 73.2445C84.064 68.9838 84.7879 64.6538 86.6509 60.8648C88.514 57.0757 91.4221 54.0186 94.9656 52.1243C98.509 50.23 102.509 49.594 106.402 50.3059C110.295 51.0177 113.885 53.0416 116.666 56.0924C116.786 56.2373 116.942 56.3433 117.114 56.3985C117.286 56.4537 117.47 56.4561 117.643 56.4053C121.5 55.5125 125.205 53.9707 128.625 51.8356C127.252 56.4237 124.47 60.3578 120.748 62.9783C124.377 62.5391 127.925 61.5049 131.27 59.9109L129.373 62.9783C127.379 65.6442 125.079 68.0214 122.531 70.052C122.436 70.1188 122.359 70.2121 122.308 70.3222C122.258 70.4323 122.235 70.5552 122.243 70.678C122.354 73.7296 122.238 76.786 121.898 79.8174C121.166 86.1532 119.516 92.3226 117.011 98.0964C114.473 104.081 111.033 109.561 106.833 114.31C99.8326 122.26 90.7972 127.735 80.9012 130.022C77.4413 130.84 73.9183 131.301 70.3788 131.399C59.7518 131.795 49.259 128.721 40.2493 122.573L39.7893 122.26C46.1654 123.008 52.6119 121.997 58.534 119.318C61.7454 117.919 64.7639 116.044 67.5039 113.746Z" fill="white"/>
</svg>
