<svg width="30" height="33" viewBox="0 0 30 33" fill="none" xmlns="http://www.w3.org/2000/svg">
<path d="M14.6466 18.4115C18.9974 18.4115 22.4866 14.3238 22.4866 9.33871C22.4866 4.35366 18.9974 0.216064 14.6466 0.216064C10.2959 0.216064 6.80664 4.30381 6.80664 9.28886C6.80664 14.2739 10.2959 18.4115 14.6466 18.4115V18.4115ZM14.6466 2.60889C17.8343 2.60889 20.4189 5.59992 20.4189 9.28886C20.4189 12.9778 17.8343 15.9688 14.6466 15.9688C11.4589 15.9688 8.87433 13.0276 8.87433 9.33871C8.87433 5.64977 11.4589 2.60889 14.6466 2.60889V2.60889Z" fill="black"/>
<path d="M1.03385 32.6189H28.3446C28.9046 32.6189 29.3784 32.0705 29.3784 31.4225C29.3784 25.1413 24.9415 20.0067 19.5138 20.0067H9.86461C4.43692 20.0067 0 25.1413 0 31.4225C0 32.0705 0.473846 32.6189 1.03385 32.6189V32.6189ZM9.86461 22.3995H19.5138C23.4769 22.3995 26.7077 25.7894 27.2246 30.2261H2.15385C2.67077 25.7894 5.90154 22.3995 9.86461 22.3995Z" fill="black"/>
</svg>
